<?xml version="1.0" encoding="utf-8"?>
<svg version="1.1" xmlns:xlink="http://www.w3.org/1999/xlink" width="160px" height="34px" xmlns="http://www.w3.org/2000/svg">
  <defs>
    <mask fill="white" id="clip67">
      <path d="M 13.953488372093 34  C 6.13953488372095 34  0 26.5200000000001  0 17  C 0 7.4799999999999  6.13953488372095 0  13.953488372093 0  L 146.046511627907 0  C 153.860465116279 0  160 7.4799999999999  160 17  C 160 26.5200000000001  153.860465116279 34  146.046511627907 34  L 107.986483800434 34  L 13.953488372093 34  Z " fill-rule="evenodd" />
    </mask>
  </defs>
  <g transform="matrix(1 0 0 1 -100 -650 )">
    <path d="M 13.953488372093 34  C 6.13953488372095 34  0 26.5200000000001  0 17  C 0 7.4799999999999  6.13953488372095 0  13.953488372093 0  L 146.046511627907 0  C 153.860465116279 0  160 7.4799999999999  160 17  C 160 26.5200000000001  153.860465116279 34  146.046511627907 34  L 107.986483800434 34  L 13.953488372093 34  Z " fill-rule="nonzero" fill="#7f7f7f" stroke="none" transform="matrix(1 0 0 1 100 650 )" />
    <path d="M 13.953488372093 34  C 6.13953488372095 34  0 26.5200000000001  0 17  C 0 7.4799999999999  6.13953488372095 0  13.953488372093 0  L 146.046511627907 0  C 153.860465116279 0  160 7.4799999999999  160 17  C 160 26.5200000000001  153.860465116279 34  146.046511627907 34  L 107.986483800434 34  L 13.953488372093 34  Z " stroke-width="2" stroke="#797979" fill="none" transform="matrix(1 0 0 1 100 650 )" mask="url(#clip67)" />
  </g>
</svg>